<?xml version="1.0" encoding="iso-8859-1"?>
<!-- Uploaded to: SVG Repo, www.svgrepo.com, Generator: SVG Repo Mixer Tools -->
<!DOCTYPE svg PUBLIC "-//W3C//DTD SVG 1.1//EN" "http://www.w3.org/Graphics/SVG/1.1/DTD/svg11.dtd">
<svg fill="#d4d4d8" version="1.1" id="Capa_1" xmlns="http://www.w3.org/2000/svg" xmlns:xlink="http://www.w3.org/1999/xlink" 
	 width="800px" height="800px" viewBox="0 0 43.874 43.874"
	 xml:space="preserve">
<g>
	<g>
		<path d="M41.754,35.461c0.016-0.018,0.041-0.043,0.047-0.051l-0.008-0.006C41.78,35.424,41.768,35.443,41.754,35.461z"/>
		<path d="M43.874,21.109c-0.041-1.781-0.293-3.508-0.731-5.158c-2.679,1.615-8.754,4.16-20.48,4.16
			c-12.262,0-19.027-2.76-21.885-4.328C0.316,17.461,0.048,19.219,0,21.033c2.199,1.232,9.25,4.494,22.287,4.494
			C35.206,25.527,41.768,22.37,43.874,21.109z"/>
		<path d="M0.053,23.329c0.109,1.399,0.352,2.764,0.711,4.075c1.297,0.943,7.943,5.234,21.574,5.234
			c12.125,0,18.504-3.394,20.631-4.8c0.42-1.418,0.713-2.889,0.84-4.407c-3.104,1.59-9.838,4.096-21.522,4.096
			C10.305,27.527,3.223,24.9,0.053,23.329z"/>
		<path d="M42.52,13.982c-0.604-1.621-1.381-3.158-2.33-4.572c-2.438,1.648-7.875,4.266-17.854,4.266
			c-9.703,0-15.557-2.785-18.393-4.646c-1.035,1.479-1.881,3.094-2.531,4.805c2.326,1.334,8.855,4.275,21.25,4.275
			C34.848,18.111,40.499,15.328,42.52,13.982z"/>
		<path d="M1.856,30.417c0.674,1.535,1.525,2.975,2.518,4.301c1.83,1.246,7.508,4.4,18.102,4.4c9.977,0,15.088-2.912,16.967-4.31
			c0.938-1.244,1.748-2.59,2.408-4.019c-3.412,1.709-9.64,3.849-19.513,3.849C11.723,34.638,5.166,32.165,1.856,30.417z"/>
		<path d="M8.514,38.952c3.705,2.881,8.359,4.6,13.42,4.6c4.857,0,9.333-1.588,12.964-4.26c-2.979,1.01-7.021,1.826-12.423,1.826
			C16.305,41.118,11.743,40.101,8.514,38.952z"/>
		<path d="M33.26,2.8c-1.787-1.078-3.729-1.926-5.801-2.463c-1.123,0.385-2.752,0.779-4.875,0.855
			C22.385,1.2,22.186,1.204,21.99,1.204c-2.283,0-4.25-0.473-5.531-0.881c-2.123,0.545-4.111,1.414-5.936,2.527
			c2.297,1.029,6.164,2.225,11.814,2.225C27.905,5.076,31.334,3.853,33.26,2.8z"/>
		<path d="M38.995,7.8c-1.142-1.406-2.442-2.674-3.894-3.762c-2.018,1.314-5.951,3.037-12.764,3.037
			c-6.963,0-11.418-1.695-13.734-2.922c-1.26,0.965-2.408,2.064-3.432,3.273c2.633,1.676,8.133,4.248,17.162,4.248
			C31.812,11.675,36.842,9.242,38.995,7.8z"/>
	</g>
</g>
</svg>